<svg xmlns:xlink="http://www.w3.org/1999/xlink" id="uuid-3a27b77b-ddae-4063-b8b5-eb809e7417f3" xmlns="http://www.w3.org/2000/svg" viewBox="0 0 799.99 799.99" width="799.99"  height="799.99" ><defs><style>.a8470{fill:#e8d575;}.a8471{fill:#231915;}</style></defs><path class="a8470" d="M288.03,455.75v98.72s65.44-5,70.7-29.06v-87.67s-33.72,18-70.7,18" style="" fill="#E8D575"></path><path class="a8470" d="M282.86,377.9c-35.62,0-64.5,12.78-64.5,28.55s28.88,28.55,64.5,28.55,64.5-12.78,64.5-28.55-28.88-28.55-64.5-28.55m0,39.71c-13.92,0-25.21-5-25.21-11.16s11.29-11.16,25.21-11.16,25.21,5,25.21,11.16-11.29,11.16-25.21,11.16" style="" fill="#E8D575"></path><path class="a8470" d="M497.29,359.43v229.42s65.44-5,70.7-29.06v-218.37s-33.72,18-70.7,18" style="" fill="#E8D575"></path><path class="a8470" d="M492.11,281.58c-35.62,0-64.5,12.78-64.5,28.55s28.88,28.55,64.5,28.55,64.5-12.78,64.5-28.55-28.88-28.55-64.5-28.55m0,39.71c-13.92,0-25.21-5-25.21-11.16s11.29-11.16,25.21-11.16,25.21,5,25.21,11.16-11.28,11.16-25.21,11.16" style="" fill="#E8D575"></path><path class="a8471" d="M378.41,409.74c-.55-29.13-38.59-41.98-61.79-46.35-19.32-3.64-39.24-3.96-58.68-1.19-16.54,2.36-33.5,7.07-47.71,16.13-9.8,6.25-19.2,15.4-20.97,27.41-1.71,11.52,4.41,21.99,12.86,29.37,11.64,10.16,26.81,15.97,41.66,19.5,19.19,4.57,39.35,5.6,58.94,3.51,18.8-2.01,38.29-6.69,54.4-16.97,11.05-7.05,21.04-17.59,21.3-31.41,.08-4.34-6.67-4.34-6.75,0-.21,10.87-8.39,19.26-16.95,24.93-12.35,8.18-26.99,12.63-41.47,15.21-31.45,5.6-68.8,3.44-96.98-12.95-8.88-5.17-18.4-12.93-20.3-23.65-1.84-10.39,4.92-19.43,12.62-25.56,11.2-8.91,25.45-13.81,39.25-16.86,17.11-3.79,34.91-4.6,52.34-2.99,17.29,1.59,35.15,5.7,50.34,14.38,10.13,5.79,20.9,14.87,21.14,27.5,.08,4.34,6.83,4.35,6.75,0" fill="#231915"></path><path class="a8471" d="M283.67,381.8c15.95,.1,33.08,2.19,47.31,9.92,8.09,4.4,17.3,12.85,10.54,22.37-7.35,10.36-23.05,14.29-34.75,16.44-17.37,3.19-35.98,2.81-53.12-1.5-10.18-2.56-29.89-8.61-30.3-21.87-.13-4.33-6.88-4.35-6.75,0,.42,13.51,14.37,21.19,25.5,25.36,18.79,7.05,40.21,8.16,59.96,5.53,14.91-1.98,33.43-6.28,43.64-18.4,8.25-9.79,5.12-21.58-4.36-29.16-15.62-12.49-38.36-15.32-57.67-15.44-4.34-.03-4.35,6.72,0,6.75" fill="#231915"></path><path class="a8471" d="M188.92,409.74c0,11.01-.04,22.01,0,33.02,.05,14.25,9.33,24.89,20.8,32.35,18.52,12.04,41.67,16.74,63.41,18,23.86,1.38,48.87-1.48,70.98-10.93,15.81-6.76,33.94-19.06,34.3-38.15h-6.75c0,11.71,.2,23.44,0,35.15-.33,19.46-23.27,30.35-39.01,35.53-27.14,8.92-57.78,9.72-85.56,3.41-17.88-4.06-45.32-13.12-50.72-33.44-1.58-5.94-.69-12.91-.69-18.97v-20.58c0-4.34-6.75-4.35-6.75,0v19.11c0,6.15-.54,12.6,.27,18.72,2.85,21.53,27.51,33.26,45.8,38.92,28.69,8.88,60.99,9.28,90.07,2.03,19.48-4.86,45.22-15.08,52.03-36.15,2.15-6.65,1.32-14.31,1.32-21.19v-22.55c0-4.35-6.67-4.35-6.75,0-.29,15.35-15.62,25.33-28.07,31.05-20.13,9.26-43.26,12.14-65.23,11.5-20.97-.61-43.13-4.53-61.55-15.06-10.85-6.21-21.09-15.43-21.13-28.76-.04-11,0-22.01,0-33.02,0-4.34-6.75-4.35-6.75,0" fill="#231915"></path><path class="a8471" d="M371.66,514.78c-.29,15.35-15.62,25.33-28.07,31.05-20.13,9.26-43.26,12.14-65.23,11.5-20.97-.6-43.13-4.53-61.55-15.06-10.85-6.21-21.09-15.43-21.14-28.76-.04-11.01,0-22.01,0-33.02,0-4.34-6.75-4.35-6.75,0,0,11.01-.04,22.01,0,33.02,.05,14.25,9.33,24.89,20.8,32.35,18.52,12.04,41.67,16.74,63.41,18,23.86,1.38,48.87-1.48,70.98-10.93,15.81-6.76,33.93-19.06,34.3-38.15,.08-4.34-6.67-4.34-6.75,0" fill="#231915"></path><path class="a8471" d="M587.36,312.7c-.55-29.13-38.59-41.98-61.79-46.35-19.32-3.64-39.23-3.96-58.68-1.19-16.54,2.36-33.5,7.07-47.71,16.13-9.8,6.26-19.2,15.4-20.97,27.41-1.71,11.52,4.41,21.99,12.86,29.37,11.64,10.16,26.81,15.97,41.66,19.5,19.19,4.57,39.35,5.6,58.94,3.51,18.8-2.01,38.29-6.69,54.4-16.97,11.05-7.05,21.04-17.59,21.3-31.41,.08-4.34-6.67-4.34-6.75,0-.21,10.87-8.39,19.26-16.95,24.93-12.35,8.18-26.99,12.63-41.47,15.21-31.45,5.6-68.8,3.44-96.98-12.95-8.88-5.17-18.4-12.93-20.3-23.65-1.84-10.39,4.92-19.43,12.62-25.56,11.2-8.91,25.45-13.81,39.25-16.86,17.11-3.79,34.91-4.6,52.34-2.99,17.29,1.59,35.15,5.7,50.34,14.38,10.13,5.79,20.9,14.87,21.14,27.5,.08,4.34,6.83,4.35,6.75,0" fill="#231915"></path><path class="a8471" d="M580.61,346.98c-.29,15.35-15.62,25.33-28.07,31.05-20.14,9.26-43.26,12.14-65.23,11.5-20.97-.6-43.13-4.53-61.55-15.06-10.86-6.21-21.09-15.43-21.14-28.76-.04-11.01,0-22.01,0-33.02,0-4.34-6.75-4.35-6.75,0,0,11.01-.04,22.01,0,33.02,.05,14.25,9.33,24.89,20.8,32.35,18.52,12.04,41.67,16.74,63.42,18,23.86,1.38,48.87-1.48,70.98-10.93,15.81-6.76,33.93-19.06,34.3-38.15,.08-4.34-6.67-4.34-6.75,0" fill="#231915"></path><path class="a8471" d="M580.61,382.37c-.29,15.35-15.62,25.33-28.07,31.05-20.14,9.26-43.26,12.14-65.23,11.5-20.97-.6-43.13-4.53-61.55-15.06-10.86-6.21-21.09-15.43-21.14-28.76-.04-11.01,0-22.01,0-33.02,0-4.34-6.75-4.35-6.75,0,0,11.01-.04,22.01,0,33.02,.05,14.25,9.33,24.89,20.8,32.35,18.52,12.04,41.67,16.74,63.42,18,23.86,1.38,48.87-1.48,70.98-10.93,15.81-6.76,33.93-19.06,34.3-38.15,.08-4.34-6.67-4.34-6.75,0" fill="#231915"></path><path class="a8471" d="M397.87,383.47c0,11.01-.04,22.01,0,33.02,.05,14.25,9.33,24.89,20.8,32.35,18.52,12.04,41.67,16.74,63.41,18,23.86,1.38,48.87-1.48,70.98-10.93,15.81-6.76,33.93-19.06,34.3-38.15h-6.75c0,11.21,.37,22.49,0,33.69-.69,20.29-26.27,31.12-42.53,35.95-26.96,8.01-57.02,8.43-84.31,1.78-17.37-4.24-43.66-13.45-48.55-33.34-1.47-5.97-.59-12.95-.59-19.03v-20.09c0-4.34-6.75-4.35-6.75,0v19.11c0,6.02-.5,12.28,.21,18.28,2.47,21.04,25.96,32.85,43.76,38.7,28.05,9.22,59.66,9.93,88.39,3.59,20.02-4.42,46.19-13.93,54.85-34.51,2.85-6.78,2.28-13.99,2.28-21.18v-22.96c0-4.35-6.67-4.35-6.75,0-.29,15.35-15.62,25.33-28.07,31.05-20.13,9.26-43.26,12.14-65.23,11.5-20.97-.61-43.13-4.53-61.55-15.06-10.85-6.21-21.08-15.43-21.13-28.76-.04-11,0-22.01,0-33.02,0-4.34-6.75-4.35-6.75,0" fill="#231915"></path><path class="a8471" d="M580.61,484.24c-.29,15.35-15.62,25.33-28.07,31.05-20.14,9.26-43.26,12.14-65.23,11.5-20.97-.6-43.13-4.53-61.55-15.06-10.86-6.21-21.09-15.43-21.14-28.76-.04-11.01,0-22.01,0-33.02,0-4.34-6.75-4.35-6.75,0,0,11.01-.04,22.01,0,33.02,.05,14.25,9.33,24.89,20.8,32.35,18.52,12.04,41.67,16.74,63.42,18,23.86,1.38,48.87-1.48,70.98-10.93,15.81-6.76,33.93-19.06,34.3-38.15,.08-4.34-6.67-4.34-6.75,0" fill="#231915"></path><path class="a8471" d="M397.87,449.96c0,11.01-.04,22.01,0,33.02,.05,14.25,9.33,24.89,20.8,32.35,18.52,12.04,41.67,16.74,63.41,18,23.86,1.38,48.87-1.48,70.98-10.93,15.81-6.76,33.93-19.06,34.3-38.15h-6.75c0,11.21,.37,22.49,0,33.69-.69,20.29-26.27,31.12-42.53,35.95-26.96,8.01-57.02,8.43-84.31,1.78-17.37-4.24-43.66-13.45-48.55-33.34-1.47-5.97-.59-12.95-.59-19.03v-20.09c0-4.34-6.75-4.35-6.75,0v19.11c0,6.02-.5,12.28,.21,18.28,2.47,21.04,25.96,32.84,43.76,38.7,28.05,9.22,59.66,9.93,88.39,3.59,20.02-4.42,46.19-13.93,54.85-34.51,2.85-6.78,2.28-13.99,2.28-21.18v-22.96c0-4.35-6.67-4.35-6.75,0-.29,15.35-15.62,25.33-28.07,31.05-20.13,9.26-43.26,12.14-65.23,11.5-20.97-.61-43.13-4.53-61.55-15.06-10.85-6.21-21.08-15.43-21.13-28.76-.04-11,0-22.01,0-33.02,0-4.34-6.75-4.35-6.75,0" fill="#231915"></path><path class="a8471" d="M397.87,516.45v19.6c0,6.25-.62,12.92,.39,19.13,3.55,21.74,29.18,33.25,47.82,38.67,29.3,8.51,62.24,8.61,91.62,.41,18.81-5.25,44.91-16.49,49.12-38.21,1.32-6.8,.54-14.26,.54-21.13v-22.74c0-4.34-6.75-4.35-6.75,0,0,12.52,.1,25.04,0,37.56-.15,18.71-20.24,29.54-35.6,35.1-27.24,9.87-58.44,11.04-86.67,5.1-12.1-2.54-24.14-6.48-34.72-12.99-7.61-4.68-15.35-11.25-18.06-20.1-1.84-6.02-.94-13.16-.94-19.35v-21.07c0-4.34-6.75-4.35-6.75,0" fill="#231915"></path><path class="a8471" d="M492.61,284.96c15.95,.1,33.08,2.19,47.31,9.92,8.09,4.4,17.3,12.85,10.54,22.37-7.35,10.36-23.05,14.29-34.75,16.44-17.37,3.19-35.98,2.81-53.12-1.5-10.18-2.56-29.89-8.61-30.3-21.87-.13-4.33-6.88-4.35-6.75,0,.42,13.51,14.36,21.19,25.5,25.36,18.79,7.05,40.21,8.16,59.96,5.53,14.91-1.98,33.43-6.28,43.64-18.4,8.25-9.79,5.12-21.58-4.36-29.16-15.62-12.49-38.36-15.32-57.67-15.44-4.34-.03-4.35,6.72,0,6.75" fill="#231915"></path></svg>